<?xml version="1.0" standalone="no"?>
<!DOCTYPE svg PUBLIC "-//W3C//DTD SVG 20010904//EN"
 "http://www.w3.org/TR/2001/REC-SVG-20010904/DTD/svg10.dtd">
<svg version="1.0" xmlns="http://www.w3.org/2000/svg"
 width="400.000000pt" height="400.000000pt" viewBox="0 0 400.000000 400.000000"
 preserveAspectRatio="xMidYMid meet">
<metadata>
Created by potrace 1.11, written by Peter Selinger 2001-2013
</metadata>
<g transform="translate(0.000000,400.000000) scale(0.100000,-0.100000)"
fill="#000000" stroke="none">
<path d="M1835 3984 c-628 -66 -1147 -372 -1487 -878 -394 -587 -446 -1334
-138 -1972 361 -747 1160 -1196 1981 -1114 599 61 1126 376 1461 874 450 670
450 1542 0 2212 -312 464 -785 767 -1342 859 -92 15 -394 27 -475 19z m595
-1549 l0 -100 -307 -307 -308 -307 -122 51 -123 50 0 612 0 612 123 51 122 51
308 -307 307 -306 0 -100z m27 -466 l123 -52 0 -429 0 -430 -72 -74 -72 -74
-434 2 -435 3 -49 115 c-26 63 -48 119 -48 125 0 10 850 865 860 865 3 0 60
-23 127 -51z"/>
<path d="M1860 2433 l0 -258 130 130 130 130 -127 127 c-70 71 -129 128 -130
128 -2 0 -3 -116 -3 -257z"/>
<path d="M2100 1385 l-185 -185 188 0 187 0 0 185 c0 102 -1 185 -3 185 -1 0
-85 -83 -187 -185z"/>
</g>
</svg>
